<svg xmlns="http://www.w3.org/2000/svg" viewBox="0 0 471 330" id="youtube-pill">
  <path fill="#FF0000" d="M461.132 51.484C455.706 31.2083 439.769 15.2746 419.493 9.84708C382.779 2.9476e-06 235.49 0 235.49 0C235.49 0 88.2022 2.9476e-06 51.4867 9.84708C31.2101 15.2746 15.2755 31.2083 9.84763 51.484C2.94776e-06 88.1972 0 164.842 0 164.842C0 164.842 2.94776e-06 241.486 9.84763 278.2C15.2755 298.475 31.2101 314.409 51.4867 319.836C88.2022 329.683 235.49 329.683 235.49 329.683C235.49 329.683 382.779 329.683 419.493 319.836C439.769 314.409 455.706 298.475 461.132 278.2C470.981 241.486 470.981 164.842 470.981 164.842C470.981 164.842 470.941 88.1972 461.132 51.484Z"></path>
  <path fill="#FFFFFF" d="M188.359 235.489L310.718 164.855L188.359 94.2188V235.489Z"></path>
</svg>
